<svg xmlns="http://www.w3.org/2000/svg" xmlns:xlink="http://www.w3.org/1999/xlink" width="500" zoomAndPan="magnify" viewBox="0 0 375 109.499999" height="146" preserveAspectRatio="xMidYMid meet" version="1.0"><defs><g/><clipPath id="9bdd7caa10"><path d="M 47 38.125 L 55 38.125 L 55 46 L 47 46 Z M 47 38.125 " clip-rule="nonzero"/></clipPath><clipPath id="8519e967af"><path d="M 53 49 L 70 49 L 70 70.863281 L 53 70.863281 Z M 53 49 " clip-rule="nonzero"/></clipPath></defs><path fill="#19d3ae" d="M 21.953125 49.304688 C 21.953125 31.320312 36.460938 16.742188 54.351562 16.742188 C 62.53125 16.742188 70.003906 19.792969 75.707031 24.820312 C 69.503906 15.15625 58.699219 8.757812 46.40625 8.757812 C 27.160156 8.757812 11.5625 24.433594 11.5625 43.773438 C 11.5625 60.574219 23.335938 74.609375 39.046875 78.003906 C 28.871094 72.515625 21.953125 61.722656 21.953125 49.304688 " fill-opacity="1" fill-rule="nonzero"/><path fill="#3a4256" d="M 87.8125 0.242188 C 87.175781 0 86.890625 0.671875 86.78125 1.574219 C 86.566406 3.335938 87.269531 5.078125 88.597656 6.25 C 102.488281 18.484375 99.792969 48.453125 90.714844 46.667969 C 84.753906 45.496094 91.101562 27.6875 86.132812 27.082031 C 82.832031 26.679688 79.898438 34.933594 80.109375 45.816406 C 80.230469 52.042969 82.21875 57.179688 83.96875 61.640625 C 86.5 68.101562 84.171875 75.5 78.347656 79.234375 C 59.816406 91.121094 34.925781 88.929688 18.738281 72.660156 C 10.1875 64.066406 5.546875 53.027344 4.8125 41.78125 C 1.238281 58.433594 5.902344 76.515625 18.816406 89.4375 C 35.089844 105.726562 61.074219 109.113281 80.964844 97.574219 C 99.84375 86.613281 107.738281 64.066406 108.863281 43.105469 C 110.292969 16.441406 95.066406 2.988281 87.8125 0.242188 Z M 85.210938 14.832031 C 92.429688 21.207031 95.15625 32.367188 94.835938 41.359375 C 95.96875 38.574219 96.585938 34.488281 96.441406 30.117188 C 96.257812 24.277344 94.871094 18.804688 92.558594 14.367188 C 89.5625 11.472656 86.613281 9.644531 84.40625 8.808594 C 83.75 8.558594 83.46875 9.265625 83.367188 10.203125 C 83.171875 11.953125 83.894531 13.667969 85.210938 14.832031 " fill-opacity="1" fill-rule="nonzero"/><path fill="#3a4256" d="M 50.773438 48.980469 C 52.34375 48.855469 56.09375 49.074219 58.25 48.300781 C 58.597656 48.160156 58.90625 48.03125 59.253906 47.910156 C 58.898438 47.890625 58.515625 47.921875 58.175781 47.945312 C 55.515625 47.9375 53.535156 47.027344 50.796875 46.769531 C 44.132812 46.070312 40.417969 52.027344 46.023438 61.054688 C 47.523438 63.492188 49.152344 65.625 50.210938 68.3125 C 50.960938 61.617188 40.695312 49.855469 50.773438 48.980469 " fill-opacity="1" fill-rule="nonzero"/><g clip-path="url(#9bdd7caa10)"><path fill="#3a4256" d="M 50.886719 45.546875 C 52.960938 45.546875 54.636719 43.882812 54.636719 41.835938 C 54.636719 39.785156 52.960938 38.125 50.886719 38.125 C 48.820312 38.125 47.144531 39.785156 47.144531 41.835938 C 47.144531 43.882812 48.820312 45.546875 50.886719 45.546875 " fill-opacity="1" fill-rule="nonzero"/></g><g clip-path="url(#8519e967af)"><path fill="#3a4256" d="M 68.695312 52.390625 C 67.488281 49.839844 64.773438 49.019531 61.914062 49.320312 C 59.203125 49.574219 57.171875 50.488281 54.539062 50.492188 C 54.195312 50.472656 53.8125 50.441406 53.460938 50.460938 C 57.667969 51.914062 58.6875 51.269531 61.941406 51.53125 C 63.679688 51.683594 65.308594 52.09375 65.96875 53.632812 C 67.953125 58.578125 61.84375 64.988281 62.5 70.863281 C 64.699219 65.289062 71.878906 58.855469 68.695312 52.390625 " fill-opacity="1" fill-rule="nonzero"/></g><path fill="#3a4256" d="M 61.824219 48.09375 C 63.890625 48.09375 65.570312 46.433594 65.570312 44.386719 C 65.570312 42.335938 63.890625 40.675781 61.824219 40.675781 C 59.753906 40.675781 58.074219 42.335938 58.074219 44.386719 C 58.074219 46.433594 59.753906 48.09375 61.824219 48.09375 " fill-opacity="1" fill-rule="nonzero"/><path fill="#3a4256" d="M 57.6875 55.625 C 57.6875 52.914062 53.542969 52.914062 53.542969 55.625 C 53.542969 58.335938 57.6875 58.339844 57.6875 55.625 " fill-opacity="1" fill-rule="nonzero"/><path fill="#3a4256" d="M 56.125 59.421875 C 56.105469 59.523438 56.148438 59.628906 56.121094 59.796875 C 55.378906 57.839844 52.9375 57.902344 52.199219 59.808594 C 52.121094 59.988281 52.074219 60.183594 52.042969 60.375 L 52.78125 60.308594 C 53.007812 59.015625 54.386719 58.101562 55.828125 59.605469 C 55.917969 59.738281 56.042969 59.878906 56.136719 59.976562 C 56.496094 59.546875 56.683594 59.144531 57.222656 58.910156 C 58.210938 58.457031 59.410156 59.300781 59.214844 60.8125 C 59.066406 62.425781 57.488281 64.25 56.585938 65.328125 C 56.128906 65.054688 55.679688 64.769531 55.257812 64.453125 L 53.683594 64.597656 C 54.628906 65.648438 55.566406 66.300781 56.742188 67.0625 C 59.007812 65.539062 60.816406 63.441406 60.878906 60.929688 C 60.886719 57.53125 57.148438 56.34375 56.125 59.421875 " fill-opacity="1" fill-rule="nonzero"/><g fill="#3a4256" fill-opacity="1"><g transform="translate(121.162024, 82.817014)"><g><path d="M 9.09375 -13.875 L 9.09375 -12.734375 L 2.984375 -12.734375 L 2.984375 -7.546875 L 8.140625 -7.546875 L 8.140625 -6.390625 L 2.984375 -6.390625 L 2.984375 0 L 1.59375 0 L 1.59375 -13.875 Z M 9.09375 -13.875 "/></g></g></g><g fill="#3a4256" fill-opacity="1"><g transform="translate(139.506253, 82.817014)"><g><path d="M 8.96875 0 L 5.546875 -5.796875 L 2.984375 -5.796875 L 2.984375 0 L 1.59375 0 L 1.59375 -13.875 L 5.765625 -13.875 C 7.304688 -13.875 8.476562 -13.503906 9.28125 -12.765625 C 10.082031 -12.023438 10.484375 -11.050781 10.484375 -9.84375 C 10.484375 -8.84375 10.195312 -7.988281 9.625 -7.28125 C 9.050781 -6.570312 8.195312 -6.109375 7.0625 -5.890625 L 10.640625 0 Z M 2.984375 -6.9375 L 5.78125 -6.9375 C 6.863281 -6.9375 7.679688 -7.195312 8.234375 -7.71875 C 8.785156 -8.25 9.0625 -8.957031 9.0625 -9.84375 C 9.0625 -10.757812 8.796875 -11.460938 8.265625 -11.953125 C 7.734375 -12.453125 6.898438 -12.703125 5.765625 -12.703125 L 2.984375 -12.703125 Z M 2.984375 -6.9375 "/></g></g></g><g fill="#3a4256" fill-opacity="1"><g transform="translate(159.716664, 82.817014)"><g><path d="M 2.984375 -13.875 L 2.984375 0 L 1.59375 0 L 1.59375 -13.875 Z M 2.984375 -13.875 "/></g></g></g><g fill="#3a4256" fill-opacity="1"><g transform="translate(172.819672, 82.817014)"><g><path d="M 2.984375 -12.75 L 2.984375 -7.5625 L 8.234375 -7.5625 L 8.234375 -6.421875 L 2.984375 -6.421875 L 2.984375 -1.15625 L 8.84375 -1.15625 L 8.84375 0 L 1.59375 0 L 1.59375 -13.90625 L 8.84375 -13.90625 L 8.84375 -12.75 Z M 2.984375 -12.75 "/></g></g></g><g fill="#3a4256" fill-opacity="1"><g transform="translate(191.362435, 82.817014)"><g><path d="M 12.046875 0 L 10.671875 0 L 2.984375 -11.671875 L 2.984375 0 L 1.59375 0 L 1.59375 -13.875 L 2.984375 -13.875 L 10.671875 -2.21875 L 10.671875 -13.875 L 12.046875 -13.875 Z M 12.046875 0 "/></g></g></g><g fill="#3a4256" fill-opacity="1"><g transform="translate(213.538312, 82.817014)"><g><path d="M 5.703125 -13.875 C 7.234375 -13.875 8.546875 -13.597656 9.640625 -13.046875 C 10.742188 -12.492188 11.585938 -11.691406 12.171875 -10.640625 C 12.753906 -9.597656 13.046875 -8.351562 13.046875 -6.90625 C 13.046875 -5.476562 12.753906 -4.242188 12.171875 -3.203125 C 11.585938 -2.160156 10.742188 -1.363281 9.640625 -0.8125 C 8.546875 -0.269531 7.234375 0 5.703125 0 L 1.59375 0 L 1.59375 -13.875 Z M 5.703125 -1.15625 C 7.628906 -1.15625 9.097656 -1.660156 10.109375 -2.671875 C 11.128906 -3.679688 11.640625 -5.09375 11.640625 -6.90625 C 11.640625 -8.738281 11.128906 -10.164062 10.109375 -11.1875 C 9.097656 -12.21875 7.628906 -12.734375 5.703125 -12.734375 L 2.984375 -12.734375 L 2.984375 -1.15625 Z M 5.703125 -1.15625 "/></g></g></g><g fill="#3a4256" fill-opacity="1"><g transform="translate(236.111239, 82.817014)"><g><path d="M 2.984375 -1.125 L 7.96875 -1.125 L 7.96875 0 L 1.59375 0 L 1.59375 -13.875 L 2.984375 -13.875 Z M 2.984375 -1.125 "/></g></g></g><g fill="#3a4256" fill-opacity="1"><g transform="translate(253.026034, 82.817014)"><g><path d="M 10.765625 -13.875 L 6.3125 -5.40625 L 6.3125 0 L 4.921875 0 L 4.921875 -5.40625 L 0.4375 -13.875 L 2 -13.875 L 5.625 -6.671875 L 9.21875 -13.875 Z M 10.765625 -13.875 "/></g></g></g><g fill="#3a4256" fill-opacity="1"><g transform="translate(272.779825, 82.817014)"><g/></g></g><g fill="#3a4256" fill-opacity="1"><g transform="translate(286.776217, 82.817014)"><g><path d="M 0.953125 -6.953125 C 0.953125 -8.316406 1.25 -9.535156 1.84375 -10.609375 C 2.4375 -11.691406 3.25 -12.535156 4.28125 -13.140625 C 5.320312 -13.742188 6.476562 -14.046875 7.75 -14.046875 C 9.289062 -14.046875 10.613281 -13.675781 11.71875 -12.9375 C 12.832031 -12.207031 13.640625 -11.171875 14.140625 -9.828125 L 12.515625 -9.828125 C 12.117188 -10.765625 11.507812 -11.5 10.6875 -12.03125 C 9.875 -12.5625 8.894531 -12.828125 7.75 -12.828125 C 6.726562 -12.828125 5.804688 -12.585938 4.984375 -12.109375 C 4.171875 -11.640625 3.535156 -10.957031 3.078125 -10.0625 C 2.617188 -9.164062 2.390625 -8.128906 2.390625 -6.953125 C 2.390625 -5.773438 2.617188 -4.738281 3.078125 -3.84375 C 3.535156 -2.957031 4.171875 -2.273438 4.984375 -1.796875 C 5.804688 -1.328125 6.726562 -1.09375 7.75 -1.09375 C 8.894531 -1.09375 9.875 -1.351562 10.6875 -1.875 C 11.507812 -2.394531 12.117188 -3.117188 12.515625 -4.046875 L 14.140625 -4.046875 C 13.640625 -2.722656 12.832031 -1.695312 11.71875 -0.96875 C 10.601562 -0.238281 9.28125 0.125 7.75 0.125 C 6.476562 0.125 5.320312 -0.175781 4.28125 -0.78125 C 3.25 -1.382812 2.4375 -2.222656 1.84375 -3.296875 C 1.25 -4.367188 0.953125 -5.585938 0.953125 -6.953125 Z M 0.953125 -6.953125 "/></g></g></g><g fill="#3a4256" fill-opacity="1"><g transform="translate(310.639602, 82.817014)"><g><path d="M 9.625 -3.296875 L 3.3125 -3.296875 L 2.109375 0 L 0.640625 0 L 5.703125 -13.703125 L 7.265625 -13.703125 L 12.3125 0 L 10.84375 0 Z M 9.21875 -4.453125 L 6.46875 -11.953125 L 3.734375 -4.453125 Z M 9.21875 -4.453125 "/></g></g></g><g fill="#3a4256" fill-opacity="1"><g transform="translate(332.140466, 82.817014)"><g><path d="M 8.96875 0 L 5.546875 -5.796875 L 2.984375 -5.796875 L 2.984375 0 L 1.59375 0 L 1.59375 -13.875 L 5.765625 -13.875 C 7.304688 -13.875 8.476562 -13.503906 9.28125 -12.765625 C 10.082031 -12.023438 10.484375 -11.050781 10.484375 -9.84375 C 10.484375 -8.84375 10.195312 -7.988281 9.625 -7.28125 C 9.050781 -6.570312 8.195312 -6.109375 7.0625 -5.890625 L 10.640625 0 Z M 2.984375 -6.9375 L 5.78125 -6.9375 C 6.863281 -6.9375 7.679688 -7.195312 8.234375 -7.71875 C 8.785156 -8.25 9.0625 -8.957031 9.0625 -9.84375 C 9.0625 -10.757812 8.796875 -11.460938 8.265625 -11.953125 C 7.734375 -12.453125 6.898438 -12.703125 5.765625 -12.703125 L 2.984375 -12.703125 Z M 2.984375 -6.9375 "/></g></g></g><g fill="#3a4256" fill-opacity="1"><g transform="translate(352.350873, 82.817014)"><g><path d="M 2.984375 -12.75 L 2.984375 -7.5625 L 8.234375 -7.5625 L 8.234375 -6.421875 L 2.984375 -6.421875 L 2.984375 -1.15625 L 8.84375 -1.15625 L 8.84375 0 L 1.59375 0 L 1.59375 -13.90625 L 8.84375 -13.90625 L 8.84375 -12.75 Z M 2.984375 -12.75 "/></g></g></g><g fill="#3a4256" fill-opacity="1"><g transform="translate(120.435638, 59.769989)"><g><path d="M 2.890625 -28.953125 L 16.578125 -28.953125 C 19.753906 -28.953125 22.566406 -28.359375 25.015625 -27.171875 C 27.472656 -25.984375 29.375 -24.300781 30.71875 -22.125 C 32.070312 -19.945312 32.75 -17.394531 32.75 -14.46875 C 32.75 -11.550781 32.070312 -9.003906 30.71875 -6.828125 C 29.375 -4.648438 27.472656 -2.96875 25.015625 -1.78125 C 22.566406 -0.59375 19.753906 0 16.578125 0 L 2.890625 0 Z M 16.25 -6.53125 C 18.738281 -6.53125 20.734375 -7.234375 22.234375 -8.640625 C 23.734375 -10.046875 24.484375 -11.988281 24.484375 -14.46875 C 24.484375 -16.957031 23.734375 -18.90625 22.234375 -20.3125 C 20.734375 -21.71875 18.738281 -22.421875 16.25 -22.421875 L 11.078125 -22.421875 L 11.078125 -6.53125 Z M 16.25 -6.53125 "/></g></g></g><g fill="#3a4256" fill-opacity="1"><g transform="translate(154.800806, 59.769989)"><g><path d="M 26.140625 -6.328125 L 26.140625 0 L 2.890625 0 L 2.890625 -28.953125 L 25.59375 -28.953125 L 25.59375 -22.625 L 11 -22.625 L 11 -17.75 L 23.859375 -17.75 L 23.859375 -11.625 L 11 -11.625 L 11 -6.328125 Z M 26.140625 -6.328125 "/></g></g></g><g fill="#3a4256" fill-opacity="1"><g transform="translate(182.797463, 59.769989)"><g><path d="M 30.4375 -28.953125 L 30.4375 0 L 23.703125 0 L 10.921875 -15.421875 L 10.921875 0 L 2.890625 0 L 2.890625 -28.953125 L 9.640625 -28.953125 L 22.421875 -13.53125 L 22.421875 -28.953125 Z M 30.4375 -28.953125 "/></g></g></g><g fill="#3a4256" fill-opacity="1"><g transform="translate(216.33555, 59.769989)"><g><path d="M 9.0625 -22.453125 L 0.171875 -22.453125 L 0.171875 -28.953125 L 26.09375 -28.953125 L 26.09375 -22.453125 L 17.25 -22.453125 L 17.25 0 L 9.0625 0 Z M 9.0625 -22.453125 "/></g></g></g><g fill="#19d3ae" fill-opacity="1"><g transform="translate(242.791629, 59.769989)"><g><path d="M 17.328125 0.578125 C 14.296875 0.578125 11.570312 -0.0625 9.15625 -1.34375 C 6.75 -2.625 4.851562 -4.410156 3.46875 -6.703125 C 2.09375 -8.992188 1.40625 -11.582031 1.40625 -14.46875 C 1.40625 -17.363281 2.09375 -19.957031 3.46875 -22.25 C 4.851562 -24.539062 6.75 -26.328125 9.15625 -27.609375 C 11.570312 -28.890625 14.296875 -29.53125 17.328125 -29.53125 C 19.972656 -29.53125 22.359375 -29.0625 24.484375 -28.125 C 26.609375 -27.1875 28.375 -25.835938 29.78125 -24.078125 L 24.5625 -19.359375 C 22.6875 -21.617188 20.414062 -22.75 17.75 -22.75 C 16.175781 -22.75 14.773438 -22.40625 13.546875 -21.71875 C 12.316406 -21.03125 11.363281 -20.054688 10.6875 -18.796875 C 10.007812 -17.546875 9.671875 -16.101562 9.671875 -14.46875 C 9.671875 -12.84375 10.007812 -11.398438 10.6875 -10.140625 C 11.363281 -8.890625 12.316406 -7.921875 13.546875 -7.234375 C 14.773438 -6.546875 16.175781 -6.203125 17.75 -6.203125 C 20.414062 -6.203125 22.6875 -7.332031 24.5625 -9.59375 L 29.78125 -4.875 C 28.375 -3.113281 26.609375 -1.765625 24.484375 -0.828125 C 22.359375 0.109375 19.972656 0.578125 17.328125 0.578125 Z M 17.328125 0.578125 "/></g></g></g><g fill="#19d3ae" fill-opacity="1"><g transform="translate(273.51764, 59.769989)"><g><path d="M 22.296875 -5.625 L 10.046875 -5.625 L 7.78125 0 L -0.578125 0 L 12.203125 -28.953125 L 20.265625 -28.953125 L 33.09375 0 L 24.5625 0 Z M 19.890625 -11.65625 L 16.171875 -20.921875 L 12.453125 -11.65625 Z M 19.890625 -11.65625 "/></g></g></g><g fill="#19d3ae" fill-opacity="1"><g transform="translate(306.228642, 59.769989)"><g><path d="M 15.546875 -7.6875 L 11.078125 -7.6875 L 11.078125 0 L 2.890625 0 L 2.890625 -28.953125 L 16.125 -28.953125 C 18.75 -28.953125 21.023438 -28.515625 22.953125 -27.640625 C 24.878906 -26.773438 26.367188 -25.535156 27.421875 -23.921875 C 28.472656 -22.304688 29 -20.410156 29 -18.234375 C 29 -16.140625 28.507812 -14.3125 27.53125 -12.75 C 26.550781 -11.195312 25.148438 -9.976562 23.328125 -9.09375 L 29.578125 0 L 20.796875 0 Z M 20.71875 -18.234375 C 20.71875 -19.585938 20.289062 -20.632812 19.4375 -21.375 C 18.582031 -22.125 17.316406 -22.5 15.640625 -22.5 L 11.078125 -22.5 L 11.078125 -14.015625 L 15.640625 -14.015625 C 17.316406 -14.015625 18.582031 -14.378906 19.4375 -15.109375 C 20.289062 -15.847656 20.71875 -16.890625 20.71875 -18.234375 Z M 20.71875 -18.234375 "/></g></g></g><g fill="#19d3ae" fill-opacity="1"><g transform="translate(337.037374, 59.769989)"><g><path d="M 26.140625 -6.328125 L 26.140625 0 L 2.890625 0 L 2.890625 -28.953125 L 25.59375 -28.953125 L 25.59375 -22.625 L 11 -22.625 L 11 -17.75 L 23.859375 -17.75 L 23.859375 -11.625 L 11 -11.625 L 11 -6.328125 Z M 26.140625 -6.328125 "/></g></g></g></svg>